<mxfile host="app.diagrams.net" modified="2023-09-28T12:50:29.896Z" agent="Mozilla/5.0 (Windows NT 10.0; Win64; x64; rv:109.0) Gecko/20100101 Firefox/117.0" etag="_3qNYR5rYGU7bZFfXzS-" version="21.8.2" type="device">
  <diagram name="Страница — 1" id="K8Wx1m4RjslwDhSuhDEU">
    <mxGraphModel dx="1434" dy="701" grid="1" gridSize="10" guides="1" tooltips="1" connect="1" arrows="1" fold="1" page="1" pageScale="1" pageWidth="1169" pageHeight="827" math="0" shadow="0">
      <root>
        <mxCell id="0" />
        <mxCell id="1" parent="0" />
        <mxCell id="4CcN1vGno0O6_xGIugly-1" value="" style="rounded=0;whiteSpace=wrap;html=1;" parent="1" vertex="1">
          <mxGeometry x="20" y="170" width="610" height="360" as="geometry" />
        </mxCell>
        <mxCell id="_IiKv0jDs9eT7AmXAW_U-5" value="" style="rounded=1;whiteSpace=wrap;html=1;arcSize=6;" parent="1" vertex="1">
          <mxGeometry x="40" y="205" width="250" height="280" as="geometry" />
        </mxCell>
        <mxCell id="_IiKv0jDs9eT7AmXAW_U-3" value="Надати стан здоров&#39;я" style="text;html=1;strokeColor=none;fillColor=none;align=center;verticalAlign=middle;whiteSpace=wrap;rounded=0;fontFamily=Verdana;fontSize=14;" parent="1" vertex="1">
          <mxGeometry x="60" y="225" width="210" height="45" as="geometry" />
        </mxCell>
        <mxCell id="_IiKv0jDs9eT7AmXAW_U-4" value="Надіслати" style="rounded=1;whiteSpace=wrap;html=1;fontFamily=Verdana;fontSize=14;fillColor=#9FC5F9;strokeColor=#6c8ebf;fontColor=#ffffff;arcSize=35;" parent="1" vertex="1">
          <mxGeometry x="105" y="365" width="120" height="60" as="geometry" />
        </mxCell>
        <mxCell id="_IiKv0jDs9eT7AmXAW_U-6" value="" style="endArrow=none;html=1;rounded=0;exitX=0;exitY=1;exitDx=0;exitDy=0;entryX=1;entryY=1;entryDx=0;entryDy=0;strokeColor=#9FC5F9;strokeWidth=3;" parent="1" source="_IiKv0jDs9eT7AmXAW_U-3" target="_IiKv0jDs9eT7AmXAW_U-3" edge="1">
          <mxGeometry width="50" height="50" relative="1" as="geometry">
            <mxPoint x="470" y="465" as="sourcePoint" />
            <mxPoint x="520" y="415" as="targetPoint" />
          </mxGeometry>
        </mxCell>
        <mxCell id="_IiKv0jDs9eT7AmXAW_U-7" value="" style="rounded=1;whiteSpace=wrap;html=1;arcSize=8;" parent="1" vertex="1">
          <mxGeometry x="420" y="230" width="190" height="240" as="geometry" />
        </mxCell>
        <mxCell id="_IiKv0jDs9eT7AmXAW_U-8" value="" style="endArrow=none;html=1;rounded=0;exitX=-0.011;exitY=0.104;exitDx=0;exitDy=0;exitPerimeter=0;entryX=1.005;entryY=0.116;entryDx=0;entryDy=0;entryPerimeter=0;" parent="1" edge="1" target="_IiKv0jDs9eT7AmXAW_U-7" source="_IiKv0jDs9eT7AmXAW_U-7">
          <mxGeometry width="50" height="50" relative="1" as="geometry">
            <mxPoint x="419.99999999999994" y="225" as="sourcePoint" />
            <mxPoint x="610" y="225" as="targetPoint" />
          </mxGeometry>
        </mxCell>
        <mxCell id="_IiKv0jDs9eT7AmXAW_U-9" value="Дякуємо за довіру" style="text;html=1;strokeColor=none;fillColor=none;align=center;verticalAlign=middle;whiteSpace=wrap;rounded=0;fontFamily=Verdana;fontSize=14;" parent="1" vertex="1">
          <mxGeometry x="435" y="220" width="160" height="40" as="geometry" />
        </mxCell>
        <mxCell id="_IiKv0jDs9eT7AmXAW_U-21" style="edgeStyle=orthogonalEdgeStyle;rounded=1;orthogonalLoop=1;jettySize=auto;html=1;exitX=1;exitY=0.5;exitDx=0;exitDy=0;" parent="1" source="_IiKv0jDs9eT7AmXAW_U-4" edge="1">
          <mxGeometry relative="1" as="geometry">
            <mxPoint x="421" y="360" as="targetPoint" />
            <Array as="points">
              <mxPoint x="310" y="395" />
              <mxPoint x="310" y="360" />
              <mxPoint x="421" y="360" />
            </Array>
          </mxGeometry>
        </mxCell>
        <mxCell id="6MWJ6jLgGA3QvhYDVrpH-2" value="Впишіть інформацію" style="strokeWidth=1;shadow=0;dashed=0;align=center;html=1;shape=mxgraph.mockup.text.textBox;fontColor=#666666;align=left;fontSize=17;spacingLeft=4;spacingTop=-3;whiteSpace=wrap;strokeColor=#666666;mainText=" vertex="1" parent="1">
          <mxGeometry x="70" y="310" width="190" height="30" as="geometry" />
        </mxCell>
        <mxCell id="6MWJ6jLgGA3QvhYDVrpH-3" value="Після опрацювання інформації, Вам надійдуть результати" style="text;html=1;strokeColor=none;fillColor=none;align=center;verticalAlign=middle;whiteSpace=wrap;rounded=0;fontFamily=Verdana;fontSize=14;" vertex="1" parent="1">
          <mxGeometry x="435" y="310" width="160" height="40" as="geometry" />
        </mxCell>
        <mxCell id="6MWJ6jLgGA3QvhYDVrpH-5" value="Ок" style="rounded=1;whiteSpace=wrap;html=1;fontFamily=Verdana;fontSize=14;fillColor=#9FC5F9;strokeColor=#6c8ebf;fontColor=#ffffff;arcSize=35;" vertex="1" parent="1">
          <mxGeometry x="472.5" y="399" width="85" height="30" as="geometry" />
        </mxCell>
      </root>
    </mxGraphModel>
  </diagram>
</mxfile>
